<svg version="1.1" id="Icons" xmlns="http://www.w3.org/2000/svg" xmlns:xlink="http://www.w3.org/1999/xlink" x="0px" y="0px" viewBox="0 0 32 32" style="enable-background:new 0 0 32 32;" xml:space="preserve">
<style type="text/css">
	.st0{fill:none;stroke:#000000;stroke-width:2;stroke-linecap:round;stroke-linejoin:round;stroke-miterlimit:10;}
</style>
<g>
<path d="M15,10V3H4C3.4,3,3,3.4,3,4v6h7H15z" id="id_101" style="fill: rgb(12, 229, 245);"></path>
<path d="M22,10h7V4c0-0.6-0.4-1-1-1H17v7H22z" id="id_102" style="fill: rgb(10, 231, 247);"></path>
<polygon points="11,12 11,20 16,20 21,20 21,12 16,12 	" id="id_103" style="fill: rgb(252, 208, 47);"></polygon>
<rect x="3" y="12" width="6" height="8" id="id_104" style="fill: rgb(255, 210, 46);"></rect>
<rect x="23" y="12" width="6" height="8" id="id_105" style="fill: rgb(255, 210, 46);"></rect>
<path d="M10,22H3v6c0,0.6,0.4,1,1,1h11v-7H10z" id="id_106" style="fill: rgb(132, 240, 9);"></path>
<path d="M17,22v7h11c0.6,0,1-0.4,1-1v-6h-7H17z" id="id_107" style="fill: rgb(136, 245, 12);"></path>
</g>
</svg>